<svg xmlns="http://www.w3.org/2000/svg" xmlns:xlink="http://www.w3.org/1999/xlink" width="217.753" height="154.964" viewBox="0 0 217.753 154.964"><defs><style>.a{fill:none;}.b{clip-path:url(#a);}.c{fill:#004e72;}.d{fill:#ffaf00;}.e{fill:#ff5245;}.f{fill:#00d6f7;}.g{fill:#eee;}</style><clipPath id="a"><rect class="a" width="217.753" height="154.964"/></clipPath></defs><g class="b"><path class="c" d="M224.592,67.43a50.536,50.536,0,1,1-50.536-50.536A50.536,50.536,0,0,1,224.592,67.43" transform="translate(-37.657 -5.15)"/><path class="d" d="M154.875,35.2A23.865,23.865,0,1,1,131.01,11.337,23.865,23.865,0,0,1,154.875,35.2" transform="translate(-32.665 -3.456)"/><path class="e" d="M293.3,22.75A22.751,22.751,0,1,1,270.547,0,22.751,22.751,0,0,1,293.3,22.75" transform="translate(-75.544)"/><path class="f" d="M279.805,170.863A23.865,23.865,0,1,1,255.94,147a23.865,23.865,0,0,1,23.865,23.865" transform="translate(-70.752 -44.815)"/><path class="f" d="M100.687,106.563a16.97,16.97,0,1,1-16.97-16.97,16.97,16.97,0,0,1,16.97,16.97" transform="translate(-20.349 -27.314)"/><path class="g" d="M26.735,46.1A13.367,13.367,0,1,1,13.367,32.728,13.367,13.367,0,0,1,26.735,46.1" transform="translate(0 -9.978)"/><path class="e" d="M172.6,207.231a8.361,8.361,0,1,1-8.361-8.361,8.361,8.361,0,0,1,8.361,8.361" transform="translate(-47.522 -60.629)"/><path class="g" d="M68.876,214a3.792,3.792,0,1,1-3.792-3.792A3.792,3.792,0,0,1,68.876,214" transform="translate(-18.686 -64.085)"/></g></svg>