<svg xmlns="http://www.w3.org/2000/svg" xmlns:xlink="http://www.w3.org/1999/xlink" width="236.391" height="157.216" viewBox="0 0 236.391 157.216"><defs><style>.a{fill:none;}.b{clip-path:url(#a);}.c{fill:#ffaf00;}.d{fill:#004e72;}.e{fill:#eee;}.f{fill:#00d6f7;}.g{fill:#ff5245;}</style><clipPath id="a"><rect class="a" width="236.391" height="157.216"/></clipPath></defs><g class="b"><path class="c" d="M137.445,167.137a24.212,24.212,0,1,1,24.212,24.212,24.212,24.212,0,0,1-24.212-24.212" transform="translate(-40.514 -42.129)"/><path class="d" d="M0,119.345a56.419,56.419,0,1,1,56.419,56.419A56.419,56.419,0,0,1,0,119.345" transform="translate(0 -18.548)"/><path class="e" d="M19.182,55.969A24.212,24.212,0,1,1,43.394,80.182,24.212,24.212,0,0,1,19.182,55.969" transform="translate(-5.654 -9.361)"/><path class="f" d="M171.777,102.833a17.217,17.217,0,1,1,17.216,17.217,17.216,17.216,0,0,1-17.216-17.217" transform="translate(-50.634 -25.237)"/><path class="d" d="M248.172,144.644a30.686,30.686,0,1,1,30.686,30.686,30.686,30.686,0,0,1-30.686-30.686" transform="translate(-73.152 -33.591)"/><path class="g" d="M227.276,176.082a13.562,13.562,0,1,1,13.562,13.562,13.561,13.561,0,0,1-13.562-13.562" transform="translate(-66.993 -47.905)"/><path class="c" d="M133.316,8.484a8.483,8.483,0,1,1,8.483,8.483,8.482,8.482,0,0,1-8.483-8.483" transform="translate(-39.297 0)"/><path class="e" d="M273.6,59.026a3.847,3.847,0,1,1,3.847,3.847,3.847,3.847,0,0,1-3.847-3.847" transform="translate(-80.648 -16.265)"/></g></svg>