<svg xmlns="http://www.w3.org/2000/svg" xmlns:xlink="http://www.w3.org/1999/xlink" width="278.689" height="156.838" viewBox="0 0 278.689 156.838"><defs><clipPath id="a"><rect width="278.689" height="156.838" fill="none"/></clipPath></defs><g clip-path="url(#a)"><path d="M17.274,77.72a25.977,25.977,0,0,1-7.582-.989,11.157,11.157,0,0,1-5.406-3.593,17.282,17.282,0,0,1-3.231-7.517A62.677,62.677,0,0,1,0,52.864a56.839,56.839,0,0,1,1.087-12.2,18.076,18.076,0,0,1,3.3-7.516,11.5,11.5,0,0,1,5.505-3.758,25.169,25.169,0,0,1,7.649-1.055,50.362,50.362,0,0,1,5.044.264q2.6.264,5.01.692t4.319.956V35.26q-1.186-.2-3.231-.429t-4.615-.4q-2.571-.165-5.341-.165a18.094,18.094,0,0,0-5.6.759A7.371,7.371,0,0,0,9.362,37.8a13.906,13.906,0,0,0-2.109,5.67,55.043,55.043,0,0,0-.66,9.462,59.763,59.763,0,0,0,.626,9.593A14.381,14.381,0,0,0,9.23,68.259a7.032,7.032,0,0,0,3.692,2.769,18.623,18.623,0,0,0,5.737.758q4.945,0,8.109-.263T31.911,71v5.077q-1.979.462-4.352.857t-4.977.594q-2.607.2-5.308.2" fill="#474747"/><path d="M125.926,77.324l5.538-48.592h6.594l12.4,40.548,12.2-40.548h6.659l5.67,48.592h-6.4l-4.747-40.482,1.121.131L153.486,77.324h-6.132l-11.67-40.351,1.187-.065-4.549,40.416Z" fill="#474747"/><rect width="6.658" height="48.592" transform="translate(183.287 28.733)" fill="#474747"/><path d="M200.3,77.324V28.732H205.7l23.8,37.252V28.732H236.1V77.324h-5.34l-23.8-37.252V77.324Z" fill="#474747"/><path d="M259.24,77.654a15.751,15.751,0,0,1-7.615-1.517,11.365,11.365,0,0,1-4.715-4.681,23,23,0,0,1-2.406-7.747,74.072,74.072,0,0,1-.693-10.78,66.5,66.5,0,0,1,.759-10.681,21.931,21.931,0,0,1,2.6-7.714,11.557,11.557,0,0,1,5.174-4.649,19.779,19.779,0,0,1,8.341-1.548q2.835,0,5.605.2t5.373.627q2.6.429,4.912.956v5.076q-1.32-.2-3.693-.4t-5.241-.363q-2.868-.164-5.835-.165-4.615,0-7.054,1.814a9.827,9.827,0,0,0-3.4,5.933,50.423,50.423,0,0,0-.956,10.978,64.192,64.192,0,0,0,.527,9.065,16.359,16.359,0,0,0,1.714,5.671A6.773,6.773,0,0,0,255.91,70.7a13.382,13.382,0,0,0,5.242.89,25.619,25.619,0,0,0,6.032-.725q3-.725,5.11-1.451V56.555H261.481V51.478q1.318-.2,3.132-.329t3.824-.23q2.01-.1,4.055-.1,1.845,0,3.395.066t2.8.2V77.324h-4.944l-.989-3.362a45.277,45.277,0,0,1-5.8,2.373,24.7,24.7,0,0,1-7.714,1.319" fill="#474747"/><path d="M71.4,156.838q-1.583,0-3.593-.1t-4.088-.3q-2.076-.2-3.956-.4a23.586,23.586,0,0,1-3.2-.527v-5.143q1.714.132,4.121.264t5.143.2q2.734.067,5.307.066a21.8,21.8,0,0,0,5.044-.527,6.55,6.55,0,0,0,3.494-1.978,5.954,5.954,0,0,0,1.287-4.088v-2.835a6.086,6.086,0,0,0-1.616-4.549,6.771,6.771,0,0,0-4.912-1.583H69.491q-6.33,0-9.791-2.769t-3.461-9.494v-2.638q0-6.987,3.791-9.988t10.779-3q2.307,0,4.946.231t5.142.56q2.5.332,4.154.659v5.143q-2.967-.2-6.627-.429t-6.889-.23a16.144,16.144,0,0,0-4.78.627,5.672,5.672,0,0,0-3.1,2.208,7.861,7.861,0,0,0-1.088,4.483v1.979q0,3.56,1.912,4.944a8.974,8.974,0,0,0,5.341,1.385h5.34a13.709,13.709,0,0,1,6.824,1.516,9.706,9.706,0,0,1,3.989,4.154,13.236,13.236,0,0,1,1.319,6v3.428q0,5.144-2.11,7.913a10.59,10.59,0,0,1-5.671,3.791,29.471,29.471,0,0,1-8.109,1.021" fill="#474747"/><path d="M113.664,156.838a33.733,33.733,0,0,1-8.34-.923,12.4,12.4,0,0,1-6-3.429,15.91,15.91,0,0,1-3.593-7.384,55.855,55.855,0,0,1-1.187-12.791,56.308,56.308,0,0,1,1.187-12.824,16.476,16.476,0,0,1,3.626-7.516,12.479,12.479,0,0,1,6-3.56,32.23,32.23,0,0,1,8.307-.956,33.228,33.228,0,0,1,8.473.956,12.087,12.087,0,0,1,5.966,3.56,16.911,16.911,0,0,1,3.561,7.516,56.365,56.365,0,0,1,1.187,12.824,55.911,55.911,0,0,1-1.187,12.791,15.9,15.9,0,0,1-3.594,7.384,12.4,12.4,0,0,1-6,3.429,34.05,34.05,0,0,1-8.407.923m0-5.934a20.371,20.371,0,0,0,5.835-.726,7.478,7.478,0,0,0,3.891-2.67,13.032,13.032,0,0,0,2.142-5.6,56.213,56.213,0,0,0,.659-9.593,57.63,57.63,0,0,0-.692-10.021,13.465,13.465,0,0,0-2.143-5.671,7.029,7.029,0,0,0-3.857-2.571,22.376,22.376,0,0,0-5.835-.66,21.111,21.111,0,0,0-5.6.66,7.351,7.351,0,0,0-3.89,2.571,13.394,13.394,0,0,0-2.275,5.671,52.816,52.816,0,0,0-.757,10.021,59.01,59.01,0,0,0,.626,9.593,12.766,12.766,0,0,0,2.11,5.6,7.46,7.46,0,0,0,3.89,2.67,20.623,20.623,0,0,0,5.9.726" fill="#474747"/><path d="M159.156,156.838a33.733,33.733,0,0,1-8.34-.923,12.4,12.4,0,0,1-6-3.429,15.91,15.91,0,0,1-3.593-7.384,55.854,55.854,0,0,1-1.187-12.791,56.308,56.308,0,0,1,1.187-12.824,16.476,16.476,0,0,1,3.626-7.516,12.479,12.479,0,0,1,6-3.56,32.23,32.23,0,0,1,8.307-.956,33.228,33.228,0,0,1,8.473.956,12.087,12.087,0,0,1,5.966,3.56,16.911,16.911,0,0,1,3.561,7.516,56.365,56.365,0,0,1,1.187,12.824,55.911,55.911,0,0,1-1.187,12.791,15.9,15.9,0,0,1-3.594,7.384,12.4,12.4,0,0,1-6,3.429,34.05,34.05,0,0,1-8.407.923m0-5.934a20.371,20.371,0,0,0,5.835-.726,7.478,7.478,0,0,0,3.891-2.67,13.032,13.032,0,0,0,2.142-5.6,56.214,56.214,0,0,0,.659-9.593,57.629,57.629,0,0,0-.692-10.021,13.465,13.465,0,0,0-2.143-5.671,7.029,7.029,0,0,0-3.857-2.571,22.376,22.376,0,0,0-5.835-.66,21.111,21.111,0,0,0-5.6.66,7.351,7.351,0,0,0-3.89,2.571,13.393,13.393,0,0,0-2.275,5.671,52.816,52.816,0,0,0-.757,10.021,59.01,59.01,0,0,0,.626,9.593,12.766,12.766,0,0,0,2.11,5.6,7.46,7.46,0,0,0,3.89,2.67,20.623,20.623,0,0,0,5.9.726" fill="#474747"/><path d="M187.44,156.443V107.851h5.406l23.8,37.252V107.851h6.593v48.592H217.9l-23.8-37.252v37.252Z" fill="#474747"/><path d="M79.514,11.353A39.2,39.2,0,0,0,40.362,50.505,41.606,41.606,0,0,0,43.92,67a3.792,3.792,0,0,0,3.752,2.128c.1.011.2.02.311.022l19.8.353h.067a3.8,3.8,0,0,0,3.8-3.8V46.575l9.121-7.607,9.084,8.579v14.36H85.08v-11.4a3.8,3.8,0,0,0-7.6,0v15.2a3.8,3.8,0,0,0,3.8,3.8H93.652a3.8,3.8,0,0,0,3.8-3.8V45.91a3.8,3.8,0,0,0-1.189-2.765L83.537,31.126a3.8,3.8,0,0,0-5.043-.156L65.414,41.876a3.8,3.8,0,0,0-1.367,2.919V61.84l-14.115-.252a34.388,34.388,0,0,1-1.97-11.081,31.552,31.552,0,1,1,31.555,31.55h0c-13.214,0-23.238-10.44-23.336-10.543a3.8,3.8,0,1,0-5.548,5.2c.495.529,12.324,12.946,28.881,12.946a39.152,39.152,0,0,0,0-78.3" fill="#07d2f3"/></g></svg>