<svg xmlns="http://www.w3.org/2000/svg" xmlns:xlink="http://www.w3.org/1999/xlink" width="262.243" height="69.443" viewBox="0 0 262.243 69.443"><defs><style>.a{fill:none;}.b{clip-path:url(#a);}.c{fill:#00d6f7;}.d{fill:#474747;}</style><clipPath id="a"><rect class="a" width="262.243" height="69.443"/></clipPath></defs><g class="b"><path class="c" d="M134.732,0A34.761,34.761,0,0,0,100.01,34.722a36.915,36.915,0,0,0,3.156,14.631,3.362,3.362,0,0,0,3.327,1.887c.091.009.182.017.275.019l17.557.313h.06a3.371,3.371,0,0,0,3.37-3.37V31.236l8.09-6.746L143.9,32.1V44.832H139.67V34.722a3.37,3.37,0,1,0-6.74,0V48.2a3.37,3.37,0,0,0,3.37,3.37h10.973a3.37,3.37,0,0,0,3.37-3.37V30.646a3.369,3.369,0,0,0-1.056-2.45L138.3,17.536a3.371,3.371,0,0,0-4.472-.138l-11.6,9.672a3.369,3.369,0,0,0-1.212,2.588V44.772L108.5,44.548a30.5,30.5,0,0,1-1.747-9.827A27.981,27.981,0,1,1,134.732,62.7c-11.719,0-20.609-9.259-20.7-9.35a3.37,3.37,0,0,0-4.918,4.61c.439.469,10.93,11.48,25.613,11.48a34.721,34.721,0,1,0,0-69.443" transform="translate(-63.835)"/><path class="d" d="M0,78.8V73.892L22.009,39.576H0V34.12H29.405V39.03L7.4,73.346H29.405V78.8Z" transform="translate(0 -21.778)"/><path class="d" d="M319.88,78.8V43.457a10.918,10.918,0,0,1,.819-4.486,7.546,7.546,0,0,1,2.152-2.88,8.249,8.249,0,0,1,3-1.516,12.5,12.5,0,0,1,3.3-.455q2.486.061,5.638.091t6.578.152q3.425.122,6.639.424v4.971h-17.34a4.675,4.675,0,0,0-3.456,1.213A4.761,4.761,0,0,0,326,44.487V54.855l19.28.364v4.729L326,60.311V78.8Z" transform="translate(-204.175 -21.778)"/><path class="d" d="M414.079,78.8V43.457a10.924,10.924,0,0,1,.818-4.486,7.551,7.551,0,0,1,2.153-2.88,8.25,8.25,0,0,1,3-1.516,12.5,12.5,0,0,1,3.3-.455q2.486.061,5.638.091t6.579.152q3.425.122,6.639.424v4.971h-17.34a4.675,4.675,0,0,0-3.456,1.213,4.76,4.76,0,0,0-1.213,3.516V54.855l19.28.364v4.729l-19.28.364V78.8Z" transform="translate(-264.3 -21.778)"/><rect class="d" width="6.123" height="44.683" transform="translate(184.458 12.342)"/><path class="d" d="M564.221,78.525a23.916,23.916,0,0,1-6.972-.909,10.256,10.256,0,0,1-4.971-3.3,15.906,15.906,0,0,1-2.971-6.912,57.634,57.634,0,0,1-.97-11.732,52.174,52.174,0,0,1,1-11.216,16.618,16.618,0,0,1,3.031-6.912,10.569,10.569,0,0,1,5.063-3.456,23.124,23.124,0,0,1,7.032-.97,46.183,46.183,0,0,1,4.639.243q2.394.243,4.608.637t3.971.879V39.48q-1.091-.182-2.971-.394t-4.244-.364q-2.364-.151-4.911-.152a16.651,16.651,0,0,0-5.153.7,6.78,6.78,0,0,0-3.456,2.546,12.78,12.78,0,0,0-1.94,5.214,50.671,50.671,0,0,0-.607,8.7,54.926,54.926,0,0,0,.576,8.822,13.226,13.226,0,0,0,1.849,5.275,6.469,6.469,0,0,0,3.4,2.546,17.1,17.1,0,0,0,5.275.7q4.547,0,7.457-.242t4.729-.485V77.01q-1.819.425-4,.788t-4.577.546q-2.4.182-4.881.182" transform="translate(-349.995 -21.136)"/><path class="d" d="M657.17,79.046a20.272,20.272,0,0,1-3.214-.273,9.6,9.6,0,0,1-3.244-1.152,6.526,6.526,0,0,1-2.516-2.7,10.491,10.491,0,0,1-.97-4.911V43.457a10.919,10.919,0,0,1,.819-4.486,7.551,7.551,0,0,1,2.152-2.88,8.258,8.258,0,0,1,3-1.516,12.5,12.5,0,0,1,3.3-.455q3.94.061,7.245.151t6.154.212q2.85.122,5.457.243v5.032H658.14a5.053,5.053,0,0,0-3.517,1.152,4.68,4.68,0,0,0-1.273,3.637v9.277l19.28.364v4.729l-19.28.424V68.5a5.554,5.554,0,0,0,.7,3.092,3.429,3.429,0,0,0,1.819,1.394,7.723,7.723,0,0,0,2.395.364h17.1v5.033q-2.789.182-5.881.333t-6.215.243q-3.124.091-6.093.091" transform="translate(-413.115 -21.778)"/></g></svg>